# xmcd
#
# Track frame offsets:
# 150
# 13647
# 30387
# 44620
# 62862
# 78270
# 91970
# 108697
#
# Disc length: 1592 seconds
#
#
# Revision: 0
# Processed by: cddbd v1.5.1PL0 Copyright (c) Steve Scherf et al.
# Submitted via: FreeRIP 2.70 
#
DISCID=5f063608
DTITLE=Kitty Moller - I Don't Want Another Heartache
DYEAR=1992
DGENRE=Country
TTITLE0=Phone Call For Jimmy
TTITLE1=I Don't Want Another Heartache
TTITLE2=No One Can Touch Me
TTITLE3=I Wanna Get Lost
TTITLE4=Helpless
TTITLE5=Nobody's Fool
TTITLE6=Do It Till It Feels Right
TTITLE7=Leave The Light On
EXTD=Kitty Moller
EXTT0=
EXTT1=
EXTT2=
EXTT3=
EXTT4=
EXTT5=
EXTT6=
EXTT7=
PLAYORDER=
